<svg xmlns="http://www.w3.org/2000/svg" viewBox="0 0 1200 1200">
  <defs>
    <mask id="transparent-cutout" maskUnits="userSpaceOnUse" x="0" y="0" width="1200" height="1200">
      <rect width="1200" height="1200" fill="#fff"/>
      <path fill="#000" transform="translate(1199 840)" d="M0 0 C0.33 0 0.66 0 1 0 C1 118.8 1 237.6 1 360 C-117.8 360 -236.6 360 -359 360 C-356.13631543 358.09087695 -353.38400791 356.8164185 -350.23046875 355.48828125 C-341.71779667 349.80819708 -339.48924289 340.98609783 -336.5 331.75 C-335.98405061 330.19699482 -335.46676238 328.64443389 -334.94824219 327.09228516 C-333.56116823 322.92395252 -332.19593438 318.74879908 -330.8371582 314.57116699 C-330.00882199 312.027095 -329.17610452 309.48450223 -328.34179688 306.94238281 C-325.14992046 297.21468423 -321.98416873 287.47869678 -318.83166504 277.73817444 C-315.4200285 267.20067625 -311.98443082 256.67101805 -308.54626465 246.14215088 C-307.53180749 243.0349246 -306.51828022 239.92739626 -305.50488281 236.81982422 C-302.68182593 228.16831197 -299.84899287 219.52067974 -296.9609375 210.890625 C-294.81781633 204.48603434 -292.71378898 198.06958151 -290.6328125 191.64453125 C-290.34810593 190.76553665 -290.06339935 189.88654205 -289.77006531 188.98091125 C-289.18681915 187.17973426 -288.60362371 185.37854084 -288.02047729 183.57733154 C-283.64451143 170.06631509 -279.23474023 156.58101303 -274.48706055 143.1953125 C-272.8789898 138.63171409 -271.3721996 134.0642749 -270.04272461 129.41137695 C-269.6446716 128.03095672 -269.22923561 126.65541042 -268.79516602 125.28588867 C-267.60421896 121.48227576 -266.83532229 117.89239593 -266.37109375 113.9296875 C-265.43555263 108.12998111 -264.11187107 103.35084334 -260 99 C-250.96408014 93.5972428 -240.3484104 91.24825206 -230.27539062 88.4921875 C-224.72583132 86.95396336 -219.26227184 85.18703253 -213.796875 83.375 C-212.85608093 83.06315765 -211.91528687 82.75131531 -210.94598389 82.43002319 C-209.05626205 81.80252943 -207.16675445 81.17439012 -205.27746582 80.54559326 C-200.86900532 79.08440551 -196.45089665 77.65349737 -192.03125 76.2265625 C-190.77366631 75.8201226 -190.77366631 75.8201226 -189.49067688 75.4054718 C-183.73995929 73.55090415 -177.97931089 71.72927422 -172.21484375 69.91796875 C-164.50040771 67.49191972 -156.822184 64.97058794 -149.15759277 62.39187622 C-133.21570991 57.03216932 -117.23717571 51.78528602 -101.25 46.5625 C-99.58865021 46.01958313 -99.58865021 46.01958313 -97.89373779 45.46569824 C-85.56930079 41.43898417 -73.24058149 37.42584808 -60.90412903 33.43609619 C-53.64732831 31.08852459 -46.39522767 28.72682108 -39.14648438 26.35449219 C-36.4960026 25.48728739 -33.84382739 24.62572129 -31.18945312 23.77050781 C-27.93318794 22.71732932 -24.68446783 21.64393582 -21.4375 20.5625 C-20.55151123 20.28075928 -19.66552246 19.99901855 -18.75268555 19.70874023 C-12.34590829 17.53346944 -7.3442105 14.43216461 -3.4765625 8.76953125 C-3.05503906 7.80080078 -3.05503906 7.80080078 -2.625 6.8125 C-2.32851562 6.15894531 -2.03203125 5.50539063 -1.7265625 4.83203125 C-1.0960106 3.24209125 -0.54087937 1.6226381 0 0 Z"/>
    </mask>
  </defs>
  <g fill="#fff" mask="url(#transparent-cutout)">
    <path transform="translate(652.125 607.375)" d="M0 0 C1.88855343 0.7423577 3.77788434 1.48274039 5.66796875 2.22119141 C9.3923641 3.67918555 13.11256342 5.14709427 16.82910156 6.625 C23.15672509 9.13890378 29.51398056 11.57192293 35.875 14 C37.88314058 14.77258528 39.89095892 15.54600871 41.8984375 16.3203125 C42.8687793 16.69446289 43.83912109 17.06861328 44.83886719 17.45410156 C45.84079102 17.84049805 46.84271484 18.22689453 47.875 18.625 C52.41630353 20.37594398 56.95805539 22.12571977 61.5 23.875 C62.50675781 24.26349121 63.51351562 24.65198242 64.55078125 25.05224609 C70.09024066 27.18566208 75.63933174 29.29153809 81.19921875 31.37109375 C90.77359168 34.95256863 100.32617029 38.59108224 109.88012695 42.22659302 C126.91635639 48.70895347 143.95892491 55.17407994 161.01351929 61.60797119 C175.27313055 66.987585 189.5238249 72.38709192 203.7421875 77.875 C242.6630525 92.89506746 281.66812933 107.69667721 320.68037605 122.47735786 C326.30789606 124.6095217 331.93524052 126.74214868 337.5625 128.875 C338.18182529 129.10972645 338.80115059 129.3444529 339.43924332 129.58629227 C354.93203623 135.45842288 370.4165043 141.35064002 385.875 147.3125 C400.13088575 152.81042187 414.40374485 158.26238115 428.6875 163.6875 C429.71611145 164.07824707 430.7447229 164.46899414 431.80450439 164.87158203 C443.3109817 169.242032 454.82014178 173.6053673 466.33213806 177.96125793 C470.89339117 179.68716521 475.45420766 181.41422513 480.01495838 183.14145947 C484.35402177 184.78454947 488.69412753 186.42486613 493.03442383 188.06469727 C499.65424072 190.56846977 506.26735213 193.08929383 512.875 195.625 C513.85940063 196.00174866 514.84380127 196.37849731 515.85803223 196.7666626 C518.59937308 197.82036513 521.33561914 198.88621254 524.0703125 199.95703125 C524.8531662 200.25711594 525.6360199 200.55720062 526.44259644 200.86637878 C534.47504321 204.04687151 541.75750434 207.6932351 545.875 215.625 C547.54635739 219.95343953 548.12422222 223.52689404 548.12109566 228.15733147 C548.12507775 229.46161752 548.12905985 230.76590357 548.13316262 232.10971344 C548.12745717 233.55018362 548.12156599 234.99065308 548.11550903 236.43112183 C548.11638138 237.96660182 548.11813291 239.50208152 548.12068737 241.03755963 C548.12515912 245.25402558 548.11715956 249.47038991 548.10713124 253.68684292 C548.09849659 258.23483717 548.10141692 262.78282566 548.10293579 267.33082581 C548.10398463 275.20958693 548.09770811 283.08831493 548.08646011 290.96706772 C548.07020797 302.35842597 548.0649974 313.7497682 548.06248413 325.14113678 C548.05810658 343.6227461 548.04479584 362.10433777 548.02587891 380.5859375 C548.00752166 398.53938712 547.99336439 416.49283195 547.98486328 434.44628906 C547.98407511 436.10618759 547.98407511 436.10618759 547.98327102 437.79961942 C547.98066095 443.35108602 547.97813353 448.90255265 547.97564721 454.45401931 C547.95491284 500.5110251 547.91968567 546.56801164 547.875 592.625 C500.76500923 592.71654788 453.65502787 592.78703485 406.54496569 592.82926132 C400.98367164 592.83426417 395.42237777 592.83944145 389.86108398 592.84472656 C388.7539267 592.8457758 387.64676941 592.84682505 386.5060619 592.84790608 C368.57720363 592.86531311 350.64839664 592.89685246 332.7195688 592.93361118 C314.32405667 592.97101229 295.92857141 592.9932341 277.53302282 593.00135398 C266.1812319 593.00684346 254.82958594 593.02418396 243.47783964 593.05666587 C235.69438359 593.07780347 227.91100252 593.08420174 220.12751985 593.07900551 C215.63628948 593.07644257 211.14531249 593.08038194 206.65412712 593.1018219 C202.54003151 593.12131815 198.42635915 593.12225019 194.31224387 593.10859558 C192.82621694 593.10690851 191.34016336 593.1119568 189.85418869 593.12453273 C179.69756659 593.20547075 172.13752958 592.33763611 164.1875 585.75 C154.21343773 574.82582536 150.1415446 555.42327773 145 541.875 C144.05828917 539.39980147 143.11630979 536.92470511 142.17407227 534.44970703 C140.28425976 529.48496229 138.39619763 524.51955589 136.50927734 519.55371094 C134.22631511 513.5468035 131.93734415 507.54221586 129.64453125 501.5390625 C121.81490408 481.03294846 114.05401878 460.5015119 106.31518555 439.96096802 C101.09219704 426.10199156 95.83326211 412.26004045 90.45776367 398.45947266 C85.71716825 386.26937014 81.07822034 374.04091461 76.4375 361.8125 C76.02711487 360.73115784 75.61672974 359.64981567 75.19390869 358.53570557 C74.78590027 357.4606073 74.37789185 356.38550903 73.95751953 355.27783203 C73.14357 353.13313221 72.3296053 350.98843815 71.515625 348.84375 C71.1175766 347.79492645 70.7195282 346.74610291 70.30941772 345.66549683 C66.30203938 335.1097104 62.27248617 324.56246545 58.23461914 314.01831055 C54.44525778 304.12243789 50.67143343 294.22070323 46.90054321 284.31777954 C45.26131229 280.01363377 43.62084587 275.70995904 41.98046875 271.40625 C30.06142503 240.1319467 30.06142503 240.1319467 24.5625 225.625 C8.95242723 184.36569805 8.95242723 184.36569805 -6.83227539 143.1730957 C-10.63209727 133.33732738 -14.37489199 123.47980026 -18.125 113.625 C-18.74274612 112.00186754 -19.36050284 110.37873912 -19.97827148 108.75561523 C-20.27491196 107.97616043 -20.57155243 107.19670563 -20.87718201 106.39363098 C-21.47903168 104.81250118 -22.0810544 103.23143723 -22.6832428 101.6504364 C-24.3014597 97.40158287 -25.91661308 93.15160002 -27.52734375 88.89990234 C-30.92548147 79.94270975 -34.35700392 71.00161509 -37.88809204 62.09585571 C-39.57000881 57.85029407 -41.23716197 53.5989981 -42.90362549 49.34735107 C-43.71036 47.30150846 -44.52431957 45.25849846 -45.34588623 43.21856689 C-55.06149502 19.08068988 -55.06149502 19.08068988 -50.125 7.3125 C-38.08021072 -13.8509433 -18.4354961 -7.41542929 0 0 Z"/>
    <path transform="translate(546 49.8125)" d="M0 0 C1.11048706 0.00060425 2.22097412 0.0012085 3.3651123 0.00183105 C43.03781312 0.06037274 81.30449178 4.61846788 120 13.1875 C120.94423828 13.38923828 121.88847656 13.59097656 122.86132812 13.79882812 C195.9107509 29.4729323 266.03071287 67.73954219 323 115.1875 C323.75748535 115.81543457 323.75748535 115.81543457 324.53027344 116.45605469 C337.2521818 127.01719585 349.16998523 138.26804874 360.875 149.9375 C361.37336365 150.43318481 361.87172729 150.92886963 362.38519287 151.4395752 C368.1448874 157.1757782 373.72487232 163.00016974 379 169.1875 C380.02122014 170.344409 381.04462759 171.49939125 382.0703125 172.65234375 C390.1725105 181.8329958 397.71074068 191.35157476 405 201.1875 C405.54688477 201.92403809 406.09376953 202.66057617 406.65722656 203.41943359 C414.53680197 214.07282312 421.98306101 224.94717371 429 236.1875 C429.57113525 237.10015625 429.57113525 237.10015625 430.15380859 238.03125 C459.0581076 284.502331 480.03739604 335.80091974 492 389.1875 C492.40774658 390.98960937 492.40774658 390.98960937 492.82373047 392.828125 C496.29277174 408.33148918 499.01170319 423.76482091 500.71191406 439.56005859 C500.98147733 442.01856693 501.27680449 444.47197293 501.5859375 446.92578125 C501.6777832 447.66280273 501.76962891 448.39982422 501.86425781 449.15917969 C501.95030273 449.84915039 502.03634766 450.53912109 502.125 451.25 C503.89928656 465.58436775 504.18646052 479.8884148 504.18530273 494.31323242 C504.18750372 497.3801839 504.20577309 500.44678292 504.22460938 503.51367188 C504.28387375 523.65325751 502.41908387 540.20391231 487.9375 555.34375 C476.49576471 566.29512521 462.90544718 568.82292394 447.640625 568.5 C441.87078697 568.22148811 437.12180037 566.85614032 432 564.1875 C431.14148438 563.75179687 430.28296875 563.31609375 429.3984375 562.8671875 C416.55263721 555.76512873 409.28366837 545.18021549 404.82717896 531.40133667 C403.53724003 526.38953966 403.45344648 521.59254143 403.49609375 516.44140625 C403.48794144 515.36020004 403.47978912 514.27899384 403.47138977 513.1650238 C403.45449368 510.87283596 403.44533536 508.58057945 403.44348145 506.28833008 C403.43338858 500.31788549 403.34949172 494.34864506 403.26171875 488.37890625 C403.24501129 487.21573883 403.22830383 486.05257141 403.21109009 484.85415649 C402.99254037 471.83513693 401.92474129 459.07278923 400 446.1875 C399.74476563 444.43735596 399.74476563 444.43735596 399.484375 442.65185547 C393.70096215 403.99077331 382.79798954 366.49986772 366 331.1875 C365.64341309 330.43275391 365.28682617 329.67800781 364.91943359 328.90039062 C362.71643308 324.27312284 360.39552507 319.7177162 358 315.1875 C357.40566162 314.05465576 357.40566162 314.05465576 356.79931641 312.89892578 C342.76473839 286.2915934 325.56021189 261.98737198 306 239.1875 C305.38125 238.465625 304.7625 237.74375 304.125 237 C293.16730832 224.35650961 281.79562611 211.99877767 269 201.1875 C268.08089844 200.39085937 267.16179688 199.59421875 266.21484375 198.7734375 C257.4335604 191.19466883 248.31050153 184.10273396 239 177.1875 C238.31953613 176.6807373 237.63907227 176.17397461 236.93798828 175.65185547 C192.2209357 142.58514021 138.71729821 120.04900906 84.42333984 108.69433594 C82.29600136 108.249408 80.17348816 107.78666062 78.05078125 107.3203125 C64.85314853 104.59944029 51.39934497 103.47026959 38 102.1875 C37.17554886 102.10229095 36.35109772 102.01708191 35.50166321 101.92929077 C29.19742797 101.30548464 22.97754045 101.04007597 16.64453125 101.0546875 C15.69922043 101.05373077 14.75390961 101.05277405 13.779953 101.05178833 C11.79430067 101.05111312 9.80864604 101.052921 7.82299805 101.05712891 C4.83702441 101.06245625 1.85120325 101.05717677 -1.13476562 101.05078125 C-17.77279369 101.04265557 -34.09033102 101.92895846 -50.5625 104.3125 C-51.30990448 104.4197641 -52.05730896 104.5270282 -52.82736206 104.63754272 C-108.899671 112.77913575 -164.74606875 132.48163645 -212 164.1875 C-212.69206543 164.65027344 -213.38413086 165.11304688 -214.09716797 165.58984375 C-224.33929812 172.4564589 -234.36537311 179.48753714 -244 187.1875 C-244.95261719 187.94675781 -245.90523437 188.70601562 -246.88671875 189.48828125 C-252.25457726 193.82299544 -257.45340415 198.30777521 -262.55078125 202.95703125 C-264.14063551 204.40488895 -265.74166323 205.84060643 -267.35546875 207.26171875 C-277.51894244 216.23144023 -287.29768227 225.78339569 -296 236.1875 C-297.24136719 237.62996094 -297.24136719 237.62996094 -298.5078125 239.1015625 C-315.28014498 258.62277637 -329.83732688 279.47033295 -342.62353516 301.80175781 C-343.78129436 303.80843092 -344.96234651 305.79536451 -346.16796875 307.7734375 C-371.0868338 349.39051108 -385.26622824 398.44667567 -392 446.1875 C-392.11327637 446.97511719 -392.22655273 447.76273437 -392.34326172 448.57421875 C-394.78663657 465.77434252 -395.21017471 482.90798449 -395.1875 500.25 C-395.18623108 501.250383 -395.18496216 502.25076599 -395.18365479 503.28146362 C-394.97293833 590.42490886 -365.26157276 679.00964436 -309.91796875 746.8359375 C-308.63321005 748.41114064 -307.3650027 749.99998102 -306.11328125 751.6015625 C-301.53166013 757.45637246 -296.64544825 762.93731077 -291.58984375 768.37890625 C-289.50995593 770.63447086 -287.49019103 772.91617887 -285.5 775.25 C-279.21119011 782.48891786 -272.29839237 789.24220388 -265.00390625 795.4609375 C-262.74766614 797.40491046 -260.56636107 799.42073518 -258.375 801.4375 C-231.44559408 825.6657801 -199.7123973 845.78037418 -167 861.1875 C-166.24428711 861.54408691 -165.48857422 861.90067383 -164.70996094 862.26806641 C-146.00282247 871.02920495 -126.83250695 878.39900483 -107 884.1875 C-106.25637207 884.4050293 -105.51274414 884.62255859 -104.74658203 884.84667969 C-84.59753263 890.64616658 -63.83080928 894.36243815 -43.02197266 896.82324219 C-40.77930313 897.09356558 -38.53974437 897.38996513 -36.30224609 897.70019531 C-21.24833503 899.6906284 -6.14959807 899.5439344 9.01220703 899.56835938 C12.55796117 899.57793344 16.10287445 899.61172499 19.6484375 899.6484375 C20.71121918 899.64339203 21.77400085 899.63834656 22.86898804 899.63314819 C34.57345894 899.7850285 44.42500314 903.56507186 54 910.1875 C54.63679687 910.62707031 55.27359375 911.06664062 55.9296875 911.51953125 C64.79665993 918.35695221 70.89352361 930.27394612 73 941.1875 C73.89483537 957.52344812 71.2560553 970.61476756 60.6875 983.5625 C50.63294378 994.22437841 38.02239659 999.62234079 23.53503418 1000.30337524 C16.4616179 1000.49946789 9.38789178 1000.4720502 2.3125 1000.4375 C0.66569748 1000.43334579 0.66569748 1000.43334579 -1.01437378 1000.42910767 C-16.77356758 1000.38232227 -32.33511828 1000.02181545 -48 998.1875 C-49.90746006 997.98999463 -51.81501486 997.79340243 -53.72265625 997.59765625 C-116.11308592 990.84124442 -181.86930054 971.35740482 -235.8125 939.06640625 C-238.56288676 937.44516111 -241.33679258 935.92092074 -244.1484375 934.41015625 C-250.11036875 931.17179397 -255.87850206 927.66691232 -261.625 924.0625 C-262.67115479 923.40652832 -263.71730957 922.75055664 -264.79516602 922.07470703 C-273.7575395 916.41303138 -282.47976738 910.49345809 -291 904.1875 C-291.70705078 903.66446289 -292.41410156 903.14142578 -293.14257812 902.60253906 C-305.81440116 893.17511039 -317.81233148 883.08595643 -329.49267578 872.4597168 C-331.07976779 871.02144364 -332.67332278 869.59024297 -334.27563477 868.16894531 C-340.62704911 862.52587938 -346.69380496 856.64484935 -352.6875 850.625 C-353.58533203 849.73103516 -354.48316406 848.83707031 -355.40820312 847.91601562 C-359.9491949 843.36837038 -364.3551126 838.76561588 -368.5402832 833.88793945 C-370.39187406 831.73100179 -372.32138597 829.65056637 -374.25 827.5625 C-379.29815828 821.96006758 -383.92244425 816.07215799 -388.52001953 810.10009766 C-390.0097521 808.17489724 -391.5169948 806.2645228 -393.02734375 804.35546875 C-441.38817776 742.77374164 -473.13377496 668.82217763 -488 592.1875 C-488.36448242 590.35300293 -488.36448242 590.35300293 -488.73632812 588.48144531 C-490.60910203 578.92384568 -492.01435605 569.36190953 -493.125 559.6875 C-493.21060181 558.94651062 -493.29620361 558.20552124 -493.38439941 557.44207764 C-494.88065252 544.35178664 -495.85175592 531.3692953 -496 518.1875 C-496.00988953 517.41583496 -496.01977905 516.64416992 -496.02996826 515.84912109 C-496.60495655 470.12167192 -496.60495655 470.12167192 -494 448.1875 C-493.88334991 447.19997742 -493.88334991 447.19997742 -493.76434326 446.19250488 C-491.2742497 425.28580663 -487.98771774 404.66111382 -483 384.1875 C-482.70754395 382.98464355 -482.41508789 381.78178711 -482.11376953 380.54248047 C-467.44176844 321.14767246 -441.83843964 265.36406304 -407 215.1875 C-406.23864746 214.08100098 -406.23864746 214.08100098 -405.46191406 212.95214844 C-395.02460297 197.80616063 -383.51808748 183.46831137 -371.31542969 169.71630859 C-370.07733662 168.27738157 -368.91442196 166.77473555 -367.7578125 165.26953125 C-366.88769531 164.23892578 -366.88769531 164.23892578 -366 163.1875 C-365.34 163.1875 -364.68 163.1875 -364 163.1875 C-363.79004395 162.65229736 -363.58008789 162.11709473 -363.36376953 161.56567383 C-361.4709196 158.26487698 -358.86640665 155.78866412 -356.1796875 153.13671875 C-355.60219757 152.55968704 -355.02470764 151.98265533 -354.42971802 151.38813782 C-353.20648633 150.16792338 -351.98082895 148.95013649 -350.75292969 147.73461914 C-348.89728973 145.8970724 -347.04961463 144.05181462 -345.203125 142.20507812 C-339.3028249 136.32238878 -333.36436945 130.57141741 -327 125.1875 C-325.84277448 124.16663855 -324.68781439 123.1432032 -323.53515625 122.1171875 C-314.35329086 114.01391869 -304.82788645 106.48929004 -295 99.1875 C-294.30600098 98.66720215 -293.61200195 98.1469043 -292.89697266 97.61083984 C-269.93588831 80.43682591 -245.34576174 64.71687601 -219.43652344 52.35400391 C-217.66783342 51.50723027 -215.90339383 50.65156043 -214.14160156 49.79052734 C-158.90718881 22.84460239 -99.12734644 6.89363695 -38 1.1875 C-36.92959473 1.0836499 -35.85918945 0.9797998 -34.75634766 0.87280273 C-23.19218161 -0.11021244 -11.5975083 -0.01161859 0 0 Z"/>
  </g>
</svg>
